<svg xmlns="http://www.w3.org/2000/svg" width="512" height="512" viewBox="0 0 512 512">
  <path fill="#009c3b" d="M512 256a256 256 0 1 1-512 0 256 256 0 0 1 512 0z"/>
  <path fill="#ffda44" d="M120.8 120.8a256.5 256.5 0 0 1 270.4 0L256 144l-135.2-23.2zm270.4 270.4a256.5 256.5 0 0 1-270.4 0L256 368l135.2 23.2z"/>
  <path fill="#009c3b" d="M391.2 391.2a256.5 256.5 0 0 1 0-270.4L368 256l23.2 135.2zM120.8 120.8a256.5 256.5 0 0 1 0 270.4L144 256l-23.2-135.2z"/>
  <circle cx="256" cy="256" r="89.6" fill="#ffda44"/>
  <g fill="#3e721d">
    <path d="M206.4 334.4h99.2v16h-99.2zM206.4 161.6h99.2v16h-99.2zM220.8 305.6h70.4v16h-70.4zM220.8 190.4h70.4v16h-70.4zM249.6 289.6h22.4v16h-22.4zM249.6 206.4h22.4v16h-22.4z"/>
  </g>
  <path d="M364.4 256a108.4 108.4 0 0 1-108.4 108.4v-216.8A108.4 108.4 0 0 1 364.4 256z" fill="#f0f0f0"/>
  <g fill="#0052b4">
    <path d="M211.9 152l10.4 31.9h33.5l-27.1 19.7 10.4 31.9-27.1-19.7-27.1 19.7 10.4-31.9-27.1-19.7h33.5zM211.9 360l10.4 31.9h33.5l-27.1 19.7 10.4 31.9-27.1-19.7-27.1 19.7 10.4-31.9-27.1-19.7h33.5z"/>
  </g>
</svg>
